<svg width="2500" height="572" viewBox="0 0 2500 572" fill="none" xmlns="http://www.w3.org/2000/svg">
<g clip-path="url(#clip0_2_508)">
<path d="M322.792 -0.0224609C480.323 -0.0222203 608.813 128.456 608.813 286C608.813 443.544 480.323 572.035 322.792 572.035C165.261 572.035 36.7559 443.531 36.7559 286C36.7559 128.469 165.248 -0.0224609 322.792 -0.0224609ZM322.053 55.748C290.523 57.0321 259.525 78.5491 255.128 109.456L234.182 256.767H184.301C129.296 256.767 84.4337 301.628 84.4336 356.62C84.4336 411.625 129.296 456.487 184.301 456.487C239.305 456.487 278.007 411.288 284.168 356.62L288.655 317.711H353.206L346.124 257.104H295.646L310.898 125.11C311.56 119.3 316.709 115.539 322.053 114.501V55.748ZM327.435 114.501C332.791 115.539 337.94 119.3 338.602 125.11L365.319 356.62C371.48 411.288 410.169 456.487 465.187 456.487C520.191 456.487 565.041 411.625 565.041 356.62C565.041 301.628 520.191 256.767 465.187 256.767H415.305L394.372 109.456C389.975 78.5491 358.977 57.0321 327.435 55.748V114.501ZM223.313 317.607V356.62C223.313 378.111 205.792 395.646 184.301 395.646C162.81 395.646 145.287 378.111 145.287 356.62C145.308 346.28 149.425 336.368 156.736 329.057C164.048 321.745 173.96 317.628 184.301 317.607H223.313ZM465.187 317.607C475.527 317.628 485.438 321.745 492.75 329.057C500.062 336.368 504.179 346.28 504.199 356.62C504.182 366.963 500.067 376.878 492.755 384.192C485.443 391.507 475.529 395.626 465.187 395.646C454.845 395.622 444.934 391.502 437.622 384.188C430.311 376.875 426.194 366.962 426.174 356.62V317.607H465.187Z" fill="black"/>
<path fill-rule="evenodd" clip-rule="evenodd" d="M671.743 378.449L715.892 263.536H732.273L779.314 378.449H761.974L748.576 343.638H700.51L687.904 378.449H671.743ZM704.894 331.252H743.881L731.871 299.437C728.838 291.604 726.125 283.651 723.739 275.598C722.248 283.073 720.17 290.42 717.526 297.569L704.894 331.252ZM843.982 347.944L857.833 349.772C856.342 359.318 852.464 366.802 846.2 372.21C839.961 377.619 832.283 380.316 823.191 380.316C811.83 380.316 802.647 376.594 795.734 369.162C788.808 361.731 785.319 351.056 785.319 337.127C785.319 328.152 786.824 320.266 789.794 313.535C792.79 306.791 797.316 301.732 803.412 298.36C809.482 294.988 816.123 293.302 823.269 293.302C832.309 293.302 839.728 295.611 845.447 300.176C851.206 304.754 854.902 311.226 856.523 319.657L842.788 321.771C841.479 316.168 839.183 311.966 835.863 309.138C832.502 306.306 828.22 304.802 823.827 304.91C816.706 304.91 810.922 307.452 806.486 312.562C802.05 317.646 799.82 325.701 799.82 336.725C799.82 347.905 801.96 356.037 806.266 361.121C810.546 366.192 816.136 368.721 823.035 368.721C828.574 368.721 833.178 367.009 836.9 363.611C840.622 360.213 842.996 355.012 843.982 347.944ZM869.934 378.449V295.209H882.541V306.868C885.161 302.809 888.637 299.515 892.981 297.05C897.502 294.507 902.619 293.213 907.806 293.302C913.967 293.302 919.012 294.586 922.942 297.154C926.897 299.722 929.686 303.289 931.294 307.88C937.909 298.166 946.456 293.302 957.013 293.302C965.275 293.302 971.617 295.611 976.066 300.176C980.501 304.754 982.732 311.797 982.732 321.291V378.436H968.712V325.999C968.712 320.344 968.258 316.285 967.35 313.794C966.391 311.305 964.641 309.2 962.37 307.802C959.813 306.261 956.872 305.474 953.887 305.533C948.025 305.533 943.187 307.478 939.296 311.382C935.444 315.26 933.499 321.498 933.499 330.058V378.423H919.401V324.352C919.401 318.061 918.247 313.34 915.951 310.215C913.642 307.089 909.907 305.52 904.654 305.52C900.698 305.52 897.028 306.557 893.656 308.671C890.284 310.746 887.819 313.807 886.328 317.815C884.81 321.861 884.058 327.672 884.058 335.233V378.423H869.934V378.449ZM1060.64 351.627L1075.22 353.43C1072.92 361.964 1068.67 368.579 1062.46 373.274C1056.22 377.956 1048.28 380.316 1038.62 380.316C1026.45 380.316 1016.78 376.568 1009.67 369.084C1002.52 361.588 998.97 351.069 998.97 337.529C998.97 323.509 1002.59 312.64 1009.79 304.91C1017.01 297.167 1026.35 293.289 1037.85 293.289C1048.98 293.289 1058.09 297.089 1065.12 304.664C1072.17 312.238 1075.71 322.912 1075.71 336.634C1075.71 337.49 1075.69 338.748 1075.63 340.408H1013.55C1014.07 349.565 1016.65 356.569 1021.3 361.419C1025.96 366.283 1031.74 368.708 1038.7 368.708C1043.86 368.708 1048.28 367.359 1051.94 364.623C1055.61 361.938 1058.5 357.593 1060.64 351.627ZM1014.33 328.813H1060.8C1060.19 321.836 1058.38 316.57 1055.47 313.081C1053.38 310.463 1050.72 308.364 1047.69 306.948C1044.66 305.532 1041.34 304.839 1038 304.923C1031.51 304.923 1026.06 307.089 1021.65 311.421C1017.23 315.753 1014.81 321.563 1014.33 328.813ZM1214.76 263.536H1229.99V329.942C1229.99 341.485 1228.68 350.654 1226.06 357.451C1223.43 364.234 1218.73 369.759 1211.89 374.013C1205.07 378.293 1196.14 380.394 1185.06 380.394C1174.31 380.394 1165.48 378.552 1158.65 374.83C1152.01 371.366 1146.81 365.658 1143.99 358.722C1141.04 351.692 1139.6 342.107 1139.6 329.929V263.523H1154.8V329.851C1154.8 339.838 1155.74 347.191 1157.58 351.886C1159.42 356.62 1162.64 360.265 1167.12 362.846C1171.65 365.401 1177.19 366.698 1183.71 366.698C1194.89 366.698 1202.87 364.156 1207.63 359.072C1212.36 354.001 1214.75 344.26 1214.75 329.851L1214.76 263.536ZM1253.48 378.449V295.209H1266.15V307.037C1272.28 297.88 1281.11 293.302 1292.64 293.302C1297.69 293.302 1302.27 294.21 1306.47 296C1310.7 297.829 1313.84 300.176 1315.93 303.12C1318.05 306.051 1319.49 309.514 1320.34 313.535C1320.84 316.155 1321.13 320.733 1321.13 327.27V378.449H1306.99V327.802C1306.99 322.082 1306.46 317.776 1305.37 314.91C1304.25 312.049 1302.2 309.653 1299.54 308.114C1296.56 306.359 1293.15 305.474 1289.69 305.558C1283.66 305.558 1278.49 307.478 1274.11 311.278C1269.75 315.104 1267.57 322.328 1267.57 333.002V378.462H1253.48V378.449ZM1342.8 279.762V263.523H1356.91V279.762H1342.8ZM1342.8 378.449V295.209H1356.91V378.449H1342.8ZM1409.17 365.816L1411.21 378.293C1407.23 379.11 1403.69 379.551 1400.55 379.551C1395.42 379.551 1391.46 378.747 1388.62 377.113C1385.99 375.699 1383.9 373.456 1382.67 370.732C1381.53 368.112 1380.94 362.535 1380.94 354.091V306.194H1370.58V295.222H1380.94V274.587L1394.98 266.13V295.222H1409.17V306.194H1394.98V354.87C1394.98 358.916 1395.24 361.484 1395.72 362.638C1396.23 363.782 1397.08 364.742 1398.15 365.388C1399.64 366.145 1401.3 366.494 1402.97 366.4C1404.56 366.374 1406.61 366.205 1409.17 365.816ZM1479.97 351.627L1494.56 353.43C1492.25 361.964 1488 368.579 1481.8 373.274C1475.57 377.956 1467.61 380.316 1457.96 380.316C1445.78 380.316 1436.12 376.568 1429.01 369.084C1421.86 361.588 1418.3 351.069 1418.3 337.529C1418.3 323.509 1421.91 312.64 1429.11 304.91C1436.34 297.167 1445.67 293.289 1457.18 293.289C1468.32 293.289 1477.42 297.089 1484.47 304.664C1491.51 312.238 1495.05 322.912 1495.05 336.634C1495.05 337.49 1495.02 338.748 1494.97 340.408H1432.89C1433.39 349.565 1436 356.569 1440.64 361.419C1442.87 363.792 1445.57 365.667 1448.57 366.923C1451.57 368.179 1454.8 368.788 1458.05 368.708C1463.21 368.708 1467.62 367.359 1471.29 364.623C1474.96 361.938 1477.84 357.593 1479.97 351.627ZM1433.66 328.813H1480.12C1479.51 321.836 1477.71 316.57 1474.81 313.081C1472.73 310.462 1470.07 308.362 1467.04 306.947C1464.01 305.531 1460.69 304.838 1457.35 304.923C1450.86 304.923 1445.39 307.089 1440.98 311.421C1436.57 315.753 1434.14 321.563 1433.66 328.813ZM1566.28 378.449V367.93C1561.02 376.205 1553.23 380.316 1543 380.316C1536.36 380.316 1530.26 378.487 1524.69 374.83C1519 371.056 1514.5 365.732 1511.74 359.487C1508.71 352.937 1507.15 345.415 1507.15 336.88C1507.15 328.58 1508.54 321.044 1511.3 314.274C1514.09 307.517 1518.24 302.316 1523.77 298.736C1529.29 295.129 1535.76 293.238 1542.36 293.302C1546.83 293.223 1551.25 294.223 1555.25 296.217C1559.25 298.21 1562.71 301.139 1565.33 304.754V263.523H1579.34V378.436L1566.28 378.449ZM1521.66 336.893C1521.66 347.568 1523.92 355.544 1528.41 360.823C1532.9 366.101 1538.21 368.734 1544.32 368.734C1550.48 368.734 1555.72 366.205 1560.03 361.173C1564.36 356.128 1566.51 348.436 1566.51 338.074C1566.51 326.673 1564.34 318.334 1559.93 313.003C1555.54 307.647 1550.15 305.001 1543.69 305.001C1537.44 305.001 1532.18 307.569 1527.98 312.692C1523.77 317.789 1521.66 325.869 1521.66 336.893ZM1729.95 338.152L1745.17 342.003C1741.98 354.467 1736.24 364 1727.97 370.576C1719.66 377.139 1709.56 380.394 1697.57 380.394C1685.19 380.394 1675.14 377.891 1667.35 372.859C1659.6 367.787 1653.7 360.498 1649.65 350.94C1645.57 341.182 1643.5 330.7 1643.57 320.124C1643.57 308.152 1645.85 297.725 1650.43 288.815C1654.71 280.204 1661.52 273.114 1669.96 268.504C1678.49 263.854 1688.08 261.469 1697.79 261.578C1709.32 261.578 1718.97 264.496 1726.79 270.358C1734.64 276.221 1740.09 284.418 1743.19 295.053L1728.22 298.581C1725.56 290.202 1721.71 284.145 1716.61 280.306C1711.54 276.48 1705.19 274.587 1697.48 274.587C1688.64 274.587 1681.3 276.701 1675.34 280.929C1669.45 285.124 1665.07 291.11 1662.85 297.997C1660.45 305.094 1659.22 312.539 1659.24 320.033C1659.24 329.838 1660.65 338.346 1663.49 345.648C1666.36 352.937 1670.77 358.384 1676.78 362.003C1682.8 365.621 1689.3 367.411 1696.32 367.411C1704.82 367.411 1712.02 364.947 1717.95 360.057C1723.86 355.116 1727.87 347.814 1729.95 338.152ZM1756.79 336.816C1756.79 321.407 1761.1 309.981 1769.69 302.562C1776.83 296.402 1785.55 293.302 1795.86 293.302C1807.31 293.302 1816.66 297.05 1823.93 304.56C1831.2 312.056 1834.82 322.406 1834.82 335.635C1834.82 346.361 1833.2 354.805 1829.98 360.913C1826.86 366.989 1821.98 371.98 1815.97 375.232C1809.81 378.63 1803.13 380.316 1795.86 380.316C1784.21 380.316 1774.78 376.594 1767.58 369.11C1760.39 361.64 1756.79 350.888 1756.79 336.816ZM1771.31 336.816C1771.31 347.49 1773.64 355.466 1778.3 360.771C1782.93 366.088 1788.82 368.734 1795.86 368.734C1802.85 368.734 1808.7 366.062 1813.34 360.745C1817.97 355.414 1820.31 347.282 1820.31 336.362C1820.31 326.064 1817.97 318.256 1813.29 312.951C1811.16 310.414 1808.49 308.385 1805.47 307.009C1802.46 305.634 1799.17 304.948 1795.86 305.001C1788.82 305.001 1782.94 307.647 1778.3 312.912C1773.64 318.191 1771.31 326.167 1771.31 336.816ZM1851.17 378.449V295.209H1863.87V307.815C1867.09 301.927 1870.1 298.023 1872.86 296.155C1875.5 294.292 1878.66 293.299 1881.9 293.315C1886.66 293.315 1891.47 294.832 1896.39 297.867L1891.52 310.98C1888.42 309.028 1884.85 307.965 1881.19 307.906C1878.1 307.906 1875.34 308.84 1872.87 310.694C1870.35 312.653 1868.51 315.365 1867.63 318.437C1866 323.769 1865.2 329.321 1865.27 334.896V378.475H1851.17V378.449ZM1904.8 410.341V295.209H1917.64V306.012C1920.65 301.797 1924.08 298.607 1927.9 296.493C1931.7 294.378 1936.33 293.315 1941.78 293.315C1948.9 293.315 1955.15 295.17 1960.57 298.801C1966.05 302.459 1970.12 307.634 1972.88 314.287C1975.67 320.954 1977.06 328.256 1977.06 336.193C1977.06 344.701 1975.54 352.392 1972.45 359.201C1969.72 365.664 1965.07 371.135 1959.13 374.882C1953.64 378.398 1947.27 380.283 1940.74 380.316C1936.06 380.316 1931.85 379.33 1928.1 377.346C1924.54 375.504 1921.41 372.942 1918.9 369.824V410.328L1904.8 410.341ZM1917.58 337.295C1917.58 347.996 1919.73 355.933 1924.06 361.056C1928.42 366.166 1933.69 368.734 1939.85 368.734C1946.1 368.734 1951.47 366.088 1955.93 360.771C1960.42 355.479 1962.68 347.256 1962.68 336.128C1962.68 325.519 1960.47 317.581 1956.11 312.29C1951.76 307.024 1946.54 304.365 1940.48 304.365C1934.45 304.365 1929.14 307.18 1924.51 312.796C1919.88 318.412 1917.58 326.595 1917.58 337.295ZM1988.78 336.816C1988.78 321.407 1993.09 309.981 2001.68 302.562C2008.82 296.402 2017.54 293.302 2027.85 293.302C2039.3 293.302 2048.65 297.05 2055.92 304.56C2063.19 312.056 2066.81 322.406 2066.81 335.635C2066.81 346.361 2065.19 354.805 2061.97 360.913C2058.85 366.989 2053.97 371.98 2047.96 375.232C2041.8 378.63 2035.12 380.316 2027.85 380.316C2016.2 380.316 2006.77 376.594 1999.57 369.11C1992.38 361.64 1988.78 350.888 1988.78 336.816ZM2003.3 336.816C2003.3 347.49 2005.63 355.466 2010.29 360.771C2014.92 366.088 2020.81 368.734 2027.85 368.734C2034.84 368.734 2040.69 366.062 2045.33 360.745C2049.96 355.414 2052.3 347.282 2052.3 336.362C2052.3 326.064 2049.96 318.256 2045.28 312.951C2043.15 310.414 2040.48 308.385 2037.46 307.009C2034.45 305.634 2031.16 304.948 2027.85 305.001C2020.81 305.001 2014.93 307.647 2010.29 312.912C2005.63 318.191 2003.3 326.167 2003.3 336.816ZM2083.16 378.449V295.209H2095.86V307.815C2099.1 301.927 2102.09 298.023 2104.85 296.155C2107.5 294.292 2110.65 293.299 2113.89 293.315C2118.65 293.315 2123.46 294.832 2128.38 297.867L2123.51 310.98C2120.41 309.028 2116.84 307.965 2113.18 307.906C2110.09 307.906 2107.33 308.84 2104.86 310.694C2102.35 312.661 2100.51 315.37 2099.62 318.437C2097.99 323.769 2097.19 329.321 2097.26 334.896V378.475H2083.16V378.449ZM2191.1 368.176C2185.86 372.625 2180.81 375.751 2176 377.606C2171.16 379.421 2165.98 380.329 2160.45 380.329C2151.28 380.329 2144.29 378.111 2139.35 373.637C2134.46 369.162 2132.01 363.443 2132.01 356.517C2132.01 352.418 2132.92 348.696 2134.8 345.337C2136.52 342.081 2139.02 339.298 2142.07 337.231C2145.08 335.194 2148.45 333.651 2152.23 332.6C2154.99 331.874 2159.17 331.161 2164.77 330.486C2176.17 329.137 2184.55 327.516 2189.95 325.623L2190.02 321.952C2190.02 316.207 2188.67 312.134 2185.99 309.8C2182.42 306.596 2177.03 305.014 2169.96 305.014C2163.32 305.014 2158.4 306.168 2155.24 308.503C2152.07 310.837 2149.74 314.949 2148.22 320.863L2134.45 318.969C2135.72 313.081 2137.77 308.295 2140.63 304.677C2143.5 301.032 2147.68 298.218 2153.1 296.272C2158.55 294.327 2164.82 293.328 2171.99 293.328C2179.12 293.328 2184.86 294.184 2189.3 295.831C2193.76 297.53 2197 299.605 2199.13 302.147C2201.2 304.69 2202.64 307.867 2203.51 311.758C2203.97 314.17 2204.22 318.502 2204.22 324.754V343.56C2204.22 356.711 2204.5 364.999 2205.13 368.449C2205.72 371.938 2206.91 375.271 2208.67 378.449H2193.93C2192.38 375.221 2191.42 371.742 2191.1 368.176ZM2189.95 336.647C2184.81 338.761 2177.13 340.538 2166.9 342.003C2161.1 342.821 2156.96 343.767 2154.59 344.818C2152.31 345.738 2150.37 347.342 2149.04 349.409C2147.72 351.39 2147.02 353.721 2147.04 356.102C2147.04 359.876 2148.48 363.002 2151.32 365.531C2154.16 368.008 2158.34 369.279 2163.84 369.279C2169.26 369.279 2174.1 368.099 2178.32 365.725C2182.55 363.326 2185.69 360.07 2187.68 355.959C2189.19 352.768 2189.96 348.06 2189.96 341.848L2189.95 336.647ZM2256.84 365.816L2258.89 378.293C2254.91 379.11 2251.37 379.551 2248.23 379.551C2243.11 379.551 2239.14 378.747 2236.3 377.113C2233.67 375.706 2231.58 373.46 2230.37 370.732C2229.2 368.112 2228.62 362.535 2228.62 354.091V306.194H2218.26V295.222H2228.62V274.587L2242.68 266.13V295.222H2256.84V306.194H2242.68V354.87C2242.68 358.916 2242.91 361.484 2243.39 362.638C2243.91 363.782 2244.76 364.742 2245.83 365.388C2247.32 366.142 2248.98 366.491 2250.64 366.4C2252.23 366.374 2254.29 366.205 2256.84 365.816ZM2270.75 279.762V263.523H2284.86V279.762H2270.75ZM2270.75 378.449V295.209H2284.86V378.449H2270.75ZM2301.04 336.816C2301.04 321.407 2305.32 309.981 2313.91 302.562C2321.06 296.402 2329.8 293.302 2340.08 293.302C2351.56 293.302 2360.9 297.05 2368.18 304.56C2375.45 312.056 2379.04 322.406 2379.04 335.635C2379.04 346.361 2377.45 354.805 2374.23 360.913C2371.11 366.989 2366.23 371.98 2360.23 375.232C2354.06 378.63 2347.38 380.316 2340.08 380.316C2328.46 380.316 2319.03 376.594 2311.83 369.11C2304.64 361.64 2301.04 350.888 2301.04 336.816ZM2315.56 336.816C2315.56 347.49 2317.89 355.466 2322.55 360.771C2327.18 366.088 2333.07 368.734 2340.08 368.734C2347.1 368.734 2352.92 366.062 2357.59 360.745C2362.22 355.414 2364.56 347.282 2364.56 336.362C2364.56 326.064 2362.22 318.256 2357.54 312.951C2355.4 310.412 2352.73 308.38 2349.71 307.005C2346.69 305.63 2343.4 304.945 2340.08 305.001C2336.76 304.937 2333.46 305.614 2330.42 306.982C2327.39 308.35 2324.7 310.376 2322.55 312.912C2317.89 318.191 2315.56 326.167 2315.56 336.816ZM2395.58 378.449V295.209H2408.28V307.037C2414.41 297.88 2423.22 293.302 2434.78 293.302C2439.79 293.302 2444.4 294.21 2448.6 296C2452.83 297.829 2455.94 300.176 2458.06 303.12C2460.16 306.051 2461.6 309.514 2462.47 313.535C2462.97 316.155 2463.23 320.733 2463.23 327.27V378.449H2449.12V327.802C2449.12 322.082 2448.59 317.776 2447.47 314.91C2446.37 312.044 2444.31 309.645 2441.65 308.114C2438.67 306.359 2435.25 305.474 2431.79 305.558C2426.08 305.463 2420.53 307.502 2416.24 311.278C2411.86 315.104 2409.7 322.328 2409.7 333.002V378.462H2395.58V378.449Z" fill="black"/>
</g>
<defs>
<clipPath id="clip0_2_508">
<rect width="2500" height="572" fill="white"/>
</clipPath>
</defs>
</svg>
