<svg width="677" height="299" viewBox="0 0 677 299" fill="none" xmlns="http://www.w3.org/2000/svg">
<g clip-path="url(#clip0_2_50)">
<path d="M339.223 5.38574C341.109 10.6019 342.905 16.2197 344.695 21.498C348.584 22.1663 352.881 22.6858 356.823 23.2773C356.719 25.8924 356.089 27.3417 356.02 30.1445C356.142 30.3778 356.285 30.6481 356.45 30.9541C359.567 31.6536 361.764 32.2444 364.47 33.7373C366.472 31.1943 367.11 29.5556 368.332 26.626C375.222 31.3114 380.218 32.927 387.949 38.7637C385.966 40.614 384.637 42.3136 382.927 44.416C378.127 40.3175 374.86 36.2306 371.852 44.2197C368.827 43.363 365.569 41.8097 362.66 40.5244C359.805 47.7236 359.394 46.6955 352.208 44.6572C350.844 47.849 349.141 53.5241 347.935 57.0176C336.514 55.7499 332.496 55.8967 321.068 56.9521C320.459 54.8817 319.79 52.9848 319.072 50.9531C315.468 51.8141 308.949 54.6473 305.18 56.1299C307.064 58.4194 307.885 59.727 309.365 62.2832C302.885 66.5166 298.485 69.3727 293.946 75.958C286.491 86.775 284.516 102.216 286.773 114.936C288.959 127.25 297.141 138.623 307.415 145.618C317.941 152.715 330.837 155.379 343.312 153.034C356.146 150.687 367.498 143.288 374.83 132.495C383.772 119.3 384.552 107.078 381.658 92.0449C375.952 94.6655 366.556 96.395 360.266 97.5381C362.325 92.2746 366.872 84.6409 369.796 79.5215L386.847 50.0879C391.424 52.3052 431.056 74.5647 432.625 76.4971C432.867 76.7922 432.752 76.9398 432.714 77.3018C430.397 79.3373 417.624 82.7716 413.98 83.9033C414.93 86.6819 415.549 91.5616 415.887 94.459C422.246 96.325 428.249 97.9332 434.271 100.747L434.124 109.701C428.679 112.44 421.689 113.446 415.871 115.836C415.256 119.668 414.868 122.653 413.285 126.203L422.896 133.978C425.266 135.823 426.427 136.781 428.498 138.938C427.238 141.878 425.962 144.811 424.671 147.736C421.02 147.651 409.727 146.519 406.479 145.726C404.078 148.928 401.507 151.984 399.608 155.495C402.698 160.885 405.795 166.93 408.562 172.489L400.957 179.417C399.223 177.663 387.895 171.854 384.925 170.303C381.543 172.361 378.539 174.233 375.261 176.466C376.41 182.953 375.276 187.824 377.974 193.81C377.109 195.46 369.662 198.605 367.694 199.284C363.617 194.646 359.962 189.656 356.442 184.586C352.596 185.206 348.499 185.765 344.768 186.833C344.03 190.372 341.102 201.241 339.054 204.235C338.377 205.223 331.643 204.93 329.783 204.987C328.075 201.383 325.142 190.622 323.88 186.419C320.611 185.688 316.113 185.013 312.76 184.409C309.913 188.123 304.636 195.547 301.063 198.528C300.02 199.399 294.444 196.262 292.199 195.453L293.278 176.11C290.494 174.124 287.196 172.132 284.28 170.284C278.419 173.506 273.215 176.478 267.003 178.958C264.93 176.68 262.933 174.719 260.735 172.576C263.04 166.967 266.344 161.016 269.221 155.611C267.125 151.95 265.402 149.061 262.821 145.715C256.283 147.081 250.8 147.396 244.152 147.875C243.019 144.672 242.047 142.048 240.682 138.91C244.84 135.085 250.649 129.795 255.26 126.646C254.392 123.19 253.74 119.261 253.077 115.729C246.765 113.893 240.543 111.755 234.435 109.323C234.939 105.503 234.354 103.75 234.717 100.838C236.512 98.7023 248.319 95.9134 251.465 95.0801C252.041 90.6695 252.676 86.2667 253.369 81.873C249.036 78.9711 244.689 74.9765 240.447 71.6836C241.974 68.5268 243.261 65.407 244.874 62.1533C249.467 62.2187 255.527 62.8642 259.841 64.2188C262.557 59.8474 265.446 55.3368 267.915 50.8428C264.237 45.9124 263.846 41.446 260.25 38.6436C262.911 35.8354 265.178 33.4166 268.095 30.8506C272.583 33.4005 276.875 35.8216 281.222 38.6045C285.337 36.4401 288.68 33.2395 293.167 31.0049C292.361 26.0698 292.903 20.2431 291.891 15.2432C295.199 13.331 297.616 12.0131 301.228 10.7705C305.044 15.2735 308.429 19.8083 312.401 24.3203C317.299 22.1653 318.843 22.6697 322.819 21.9111C325.643 21.3711 327.829 9.20907 329.714 5.26172L339.223 5.38574ZM274.697 84.4248C274.03 87.1411 273.248 90.7541 272.431 93.3574C274.04 93.9839 276.881 95.2098 278.568 94.8535C279.465 91.7274 280.016 89.9231 281.308 86.9619C278.754 85.7288 277.417 85.2731 274.697 84.4248ZM293.736 38.4922C291.779 40.2068 288.15 42.8292 286.691 44.2676L290.854 49.7129L283.837 55.3408L287.755 59.9277C292.735 56.1245 296.009 53.7942 301.153 50.3164C299.633 47.4586 295.994 40.5305 293.736 38.4922ZM325.876 43.708C325.005 43.2477 324.672 43.3998 323.691 43.5527L317.99 44.4814C318.491 45.7716 319.365 49.0953 319.93 49.7871C320.353 49.789 320.906 49.8158 321.311 49.7559C323.726 49.4326 324.924 49.2581 327.272 48.5801C327.018 46.9669 326.902 44.8942 325.876 43.708ZM335.134 28.457C335.053 30.6336 335.058 33.2344 334.597 35.3311C331.681 35.3941 328.291 35.3804 325.444 35.7832C325.527 37.9575 325.595 39.4907 325.906 41.6572C328.68 41.5719 331.748 41.4106 334.496 41.4102C334.535 42.8677 334.446 47.1988 335.138 48.1689L342.608 48.75C343.323 42.0525 343.526 35.4656 344.537 28.8311C341.621 28.6827 338 28.4021 335.134 28.457ZM307.187 40.2549C307.999 41.9788 309.122 44.5949 310.188 46.084L317.342 44.5127C317.02 42.9498 316.341 38.6964 315.36 37.7559L314.912 37.6455L307.187 40.2549Z" fill="#1F2B30"/>
<path d="M299.571 240.721C305.205 240.128 317.178 240.501 323.439 240.5L370.465 240.55L370.93 294.047L360.358 294.032C360.235 288.605 360.807 277.804 359.966 272.98C359.201 272.348 359.017 272.568 357.814 272.579C337.74 273.298 317.027 272.744 296.857 273.036C296.473 279.276 296.674 287.657 296.585 294.123C292.405 293.648 290.476 293.737 286.263 294.08C285.979 285.66 285.813 277.237 285.766 268.813C285.723 265.372 285.473 257.748 285.938 254.568C286.254 252.243 287.055 250.011 288.29 248.016C291.035 243.626 294.764 241.828 299.571 240.721ZM319.675 251.442C315.599 251.424 304.007 251.009 300.415 251.439C298.007 253.41 294.462 257.816 296.795 261.13C297.363 261.937 299.08 261.603 300.011 261.769C318.296 262.253 337.506 261.247 355.701 261.986C357.522 262.064 358.072 262.379 359.548 261.588C361.127 259.076 360.155 254.884 360.136 251.392C346.648 251.498 333.161 251.515 319.675 251.442Z" fill="#AA9460"/>
<path d="M111.917 240.703C117.116 240.141 130.206 240.513 135.945 240.515L184.289 240.532C184.309 246.198 184.338 251.675 184.107 257.336L173.485 257.257C173.355 255.359 173.286 253.362 173.19 251.453L135.603 251.485C128.936 251.468 122.183 251.225 115.531 251.49C109.27 251.738 109.074 257.149 109.5 261.872C128.333 261.361 149.29 261.762 168.265 261.79C168.293 265.46 168.245 269.196 168.23 272.872C157.27 273.047 146.012 272.932 135.03 272.945C126.587 272.999 117.787 272.6 109.441 272.827C109.418 274.048 109.43 275.269 109.477 276.489C109.684 281.109 111.759 283.334 116.406 283.235C135.083 282.836 154.732 284.017 173.297 283.004L173.328 277.708C176.89 277.589 180.708 277.627 184.292 277.597C184.344 283.044 184.354 288.491 184.321 293.938C164.511 294.281 144.614 293.94 124.797 294.11C121.258 293.934 117.119 294.392 113.652 293.875C102.205 292.167 98.4014 284.65 98.7519 274.033C98.8852 267.838 98.3084 261.351 98.8153 255.184C99.4682 247.239 104.959 243.014 111.917 240.703Z" fill="#AA9460"/>
<path d="M584.772 240.418C595.252 240.505 609.286 239.911 619.596 241.199C622.274 241.533 625.398 243.824 627.493 245.515C629.541 243.956 633.103 241.351 635.474 241.068C645.773 239.84 659.272 240.573 669.817 240.462L669.986 294.101C666.639 293.972 662.765 294.084 659.38 294.102L659.307 251.337C651.76 251.433 644.259 251.309 636.692 251.499C635.72 252.111 634.648 252.961 633.714 253.663C632.354 256.518 632.892 288.262 632.896 294.054C629.51 293.921 625.79 294.016 622.378 294.036C622.236 288.607 623.173 255.032 620.925 252.954C618.17 250.411 600.024 251.508 595.628 251.542C595.721 265.736 595.709 279.93 595.601 294.123C592.481 293.893 588.227 294.055 585.022 294.089C584.688 276.559 584.949 258.101 584.772 240.418Z" fill="#AA9460"/>
<path d="M55.0075 240.405C62.71 240.426 71.4158 239.92 78.9092 241.13C82.2701 241.672 89.4841 248.583 89.8503 252.053C91.2918 265.721 90.6001 280.318 90.5455 294.151C86.7661 294.088 83.6762 294.075 79.876 294.282C79.863 284.672 80.361 264.835 79.4134 256.176C77.7471 254.035 76.8191 253.291 74.6691 251.797C71.1191 251.534 67.5626 251.378 64.0035 251.328C50.7217 251.196 53.3478 263.109 53.4028 272.652C53.4451 279.835 53.4458 287.019 53.4047 294.203C49.9205 294.106 46.1634 294.181 42.6576 294.186L42.6934 288.369C42.5981 278.824 43.058 267.178 42.228 257.666C41.9867 254.903 39.1718 252.994 36.9826 251.571C31.4755 251.296 21.766 251.553 16.2047 251.757C16.5533 265.561 16.4303 280.402 16.3358 294.213C12.9545 294.128 9.26969 294.225 5.86499 294.247C6.07212 276.43 5.94646 258.315 5.89957 240.487C13.9448 240.625 35.7249 239.325 41.969 241.282C44.6347 242.118 46.3309 243.661 48.3411 245.509C50.2894 243.531 52.3226 241.224 55.0075 240.405Z" fill="#AA9460"/>
<path d="M206.326 240.701C213.362 240.242 223.706 240.523 230.939 240.514L277.802 240.55L277.784 257.082C274.354 257.185 270.518 257.092 267.057 257.085L267.024 251.723C264.567 251.468 252.904 251.336 250.849 251.578C243.282 252.469 209.035 249.83 204.301 253.018C202.824 256.185 203.263 276.493 203.695 280.842L206.914 283.326C213.587 283.187 220.263 283.133 226.938 283.164C240.302 283.028 253.667 283.05 267.031 283.227L266.959 277.843L277.774 277.78L277.781 293.977L229.121 294.111C221.495 294.116 213.353 294.317 205.781 293.759C203.37 293.581 201.43 292.447 199.465 291.339C196.151 289.469 193.512 285.181 192.999 281.466C192.199 275.678 191.777 258.58 192.762 253.292C193.124 251.274 193.891 249.35 195.018 247.637C197.767 243.507 201.633 241.626 206.326 240.701Z" fill="#AA9460"/>
<path d="M379.172 240.379C385.59 240.697 393.383 240.493 399.935 240.493L444.219 240.462C465.454 240.63 464.217 251.927 464.309 268.154C464.428 276.858 464.397 285.564 464.225 294.267C460.758 294.092 457.277 294.144 453.807 294.16L453.549 262.235C453.507 259.107 454.199 254.954 451.801 252.55C449.991 250.735 397.099 251.498 389.974 251.482C390.224 265.722 390.236 279.965 390.005 294.205C386.189 294.021 383.242 294.01 379.449 294.091C379.434 276.253 378.911 258.18 379.172 240.379Z" fill="#AA9460"/>
<path d="M491.666 240.239C494.817 240.606 499.486 240.519 502.764 240.55C502.46 254.431 502.568 269.327 502.695 283.228L542.686 283.134C548.904 283.129 555.437 283.345 561.647 283.145C563.549 283.084 564.84 281.246 565.985 279.839C566.1 267.041 565.705 253.274 565.635 240.354C568.979 240.589 573.052 240.537 576.457 240.581L576.53 250.77C576.545 253.938 576.395 258.235 576.614 261.26C579.177 296.662 568.894 294.109 539.224 294.081C523.43 294.014 507.636 294.032 491.843 294.136C491.908 276.17 491.85 258.204 491.666 240.239Z" fill="#AA9460"/>
<path d="M472.467 240.478L483.346 240.542L483.35 294.063C479.853 294.021 476.26 294.057 472.755 294.056C472.333 276.36 472.771 258.295 472.467 240.478Z" fill="#AA9460"/>
<path d="M357.284 53.1984C358.375 53.2111 361.134 53.9718 361.976 54.6782C364.674 56.9476 361.649 60.1982 360.308 61.9267C359.129 62.0724 355.197 59.4567 354.094 58.6991C355.082 56.7773 356.162 55.0418 357.284 53.1984Z" fill="#1F2B30"/>
<path d="M245.112 54.1436L245.746 54.3557C245.208 55.3662 243.004 55.8586 241.719 56.8841C238.636 59.343 236.672 61.8287 234.248 64.8545L233.916 64.7845L233.702 64.3002C237.691 59.2738 239.191 56.8834 245.112 54.1436Z" fill="#DCDADC"/>
</g>
<defs>
<clipPath id="clip0_2_50">
<rect width="677" height="299" fill="white"/>
</clipPath>
</defs>
</svg>
