<svg width="734" height="266" viewBox="0 0 734 266" fill="none" xmlns="http://www.w3.org/2000/svg">
<g clip-path="url(#clip0_2_479)">
<path d="M82.9959 106.176C99.8387 106.497 117.236 106.23 134.154 106.343L133.979 165.396C133.998 175.116 134.559 187.638 134.019 196.977C123.503 196.917 112.987 196.989 102.473 197.195C102.291 177.174 102.286 157.151 102.457 137.129L102.459 125.5C99.1318 134.084 97.8695 144.212 95.5851 153.095C91.874 167.524 88.507 182.815 84.3407 197.063C74.7837 196.927 65.2249 196.998 55.6709 197.275C50.0975 173.457 44.8747 147.88 38.2757 124.369C37.6448 130.605 38.0612 142.524 38.0808 149.191C38.1916 165.122 38.1563 181.054 37.9753 196.985C28.0289 196.9 18.0821 197.003 8.1396 197.294L8.04541 106.227L59.1069 106.251C63.8348 122.625 66.8465 140.071 71.1358 156.732C75.4146 140.631 79.2892 122.524 82.9959 106.176Z" fill="#0373BF"/>
<path d="M270.96 106.195C301.517 105.31 327.576 108.126 328.719 145.168C329.182 160.138 329.063 173.43 318.16 185.593C304.217 199.051 285.653 196.99 267.771 196.98C256.702 196.945 245.634 196.968 234.565 197.049C234.19 167.04 234.525 136.296 234.507 106.228C245.809 106.379 260.082 106.51 270.96 106.195ZM292.642 144.632C291.313 129.02 284.336 127.112 270.998 127.763L269.75 128.018C269.132 129.442 269.499 169.519 269.472 174.177C275.866 174.222 282.522 175.025 287.79 170.994C293.711 163.874 293.39 153.416 292.642 144.632Z" fill="#0373BF"/>
<path d="M488.817 106.188L518.406 106.163C518.171 135.495 519.195 168.124 518.175 197.029L501.802 196.986C490.387 196.934 478.971 197.011 467.556 197.217C461.534 175.391 456.594 152.036 450.136 130.403C449.194 151.804 450.694 175.201 450.075 196.964C440.116 196.891 430.161 196.988 420.207 197.255V145.026C420.194 134.557 419.949 123.112 420.372 112.709L420.804 112.243C425.417 107.342 427.807 106.568 434.404 106.377L471.877 106.276L488.795 171.09C489.715 150.855 488.686 126.928 488.817 106.188Z" fill="#0373BF"/>
<path d="M556.712 106.106C561.705 106.428 568.847 106.242 573.953 106.238L604.069 106.197C610.815 125.463 617.687 144.684 624.689 163.857C628.213 173.597 633.655 187.429 636.114 197.105C624.289 196.83 611.666 197.041 599.836 197.286C598.75 193.639 597.691 189.984 596.657 186.322L594.241 177.073C584.871 177.454 574.467 177.281 565.014 177.289C563.483 183.245 561.242 191.27 559.167 196.941L525.291 197.056C527.367 191.59 529.381 184.71 531.374 179.006L546.382 136.457C549.844 126.39 553.014 116.06 556.712 106.106ZM579.73 126.13C576.264 134.438 573.285 146.813 569.88 155.878L579.848 155.738L589.576 155.958C588.447 152.194 581.261 127.488 579.73 126.13Z" fill="#0373BF"/>
<path d="M681.802 106.215C690.788 106.183 700.294 105.731 709.181 107.015C720.461 108.645 732.234 115.438 733.703 127.791C736.389 150.423 732.63 166.924 707.122 170.658C697.521 171.029 687.287 170.798 677.576 170.955C677.681 179.627 677.673 188.299 677.542 196.97L643.178 197.078L642.764 106.255L681.802 106.215ZM685.094 127.611C682.77 127.577 680.442 127.632 678.122 127.776L677.128 128.192C676.539 130.842 676.831 146.325 676.853 150.232C683.785 150.231 690.584 150.988 696.623 147.567C699.335 145.114 700.569 143.248 700.743 139.471C701.21 129.339 693.073 127.683 685.094 127.611Z" fill="#0373BF"/>
<path d="M145.034 106.244L223.497 106.198C223.583 113.623 223.537 121.049 223.358 128.473L179.313 128.514L179.344 141.288C193.218 141.469 207.616 141.213 221.529 141.155C221.6 148.366 221.587 155.578 221.488 162.788C210.092 162.891 198.695 162.916 187.299 162.863L179.323 162.858L179.381 175.067C194.433 174.895 209.488 174.874 224.54 175.004L224.467 196.973C198.014 196.822 171.56 196.859 145.107 197.081L145.034 106.244Z" fill="#0373BF"/>
<path d="M342.897 11.9605C347.715 11.6364 348.487 13.2108 351.413 16.724C352.077 26.4028 353.374 31.2902 362.057 36.479C362.63 47.5883 362.5 60.8859 362.441 72.1099C356.148 68.6142 354.308 65.0059 345.574 64.1953C334.434 63.1614 320.402 66.1197 311.578 73.0784C305.087 69.8078 301.65 68.1845 298.082 61.7139C288.5 61.8928 278.641 60.3685 272.969 51.8798C270.393 49.6998 257.076 52.8396 249.906 41.8262C237.073 41.4079 229.348 38.827 224.731 26.3579C239.587 26.1834 254.542 26.4338 269.429 26.3055C285.336 26.1681 300.869 26.9176 316.437 22.9987C327.265 20.2729 333.313 17.0669 342.897 11.9605Z" fill="#D61B22"/>
<path d="M399.848 11.9304C400.69 11.8501 402.273 11.7171 403.023 12.1184C413.466 17.6868 423.634 22.6545 435.481 24.5343C449.138 26.7012 463.078 26.3478 476.913 26.3251L520.974 26.2854C516.714 38.3811 508.482 41.4611 496.286 41.6347C488.403 50.0955 484.814 50.4336 473.638 51.3284C473.067 51.6564 470.717 54.5641 469.766 55.3476C463.618 60.4352 456.219 61.8797 448.571 61.4565C443.944 67.623 441.115 69.2708 434.609 73.2368C425.103 65.221 402.573 60.8396 391.136 66.8857C389.218 67.8996 385.289 71.2025 383.427 72.684C382.978 61.2475 383.327 48.7588 383.192 37.1387C398.745 27.0227 389.078 18.2164 399.848 11.9304Z" fill="#D61B22"/>
<path d="M396.774 70.9124C402.098 70.4897 402.251 71.4926 407.204 72.171C414.194 73.0492 420.429 73.0714 426.843 76.3743C436.126 81.1561 436.048 91.2337 427.445 96.7052C415.607 104.237 400.332 106.97 387.177 111.855C378.308 115.147 369.435 117.813 360.923 122.132C335.53 132.927 353.538 138.455 367.39 145.877L358.324 150.054C358.15 150.161 357.975 150.267 357.8 150.37C356.803 150.957 355.141 151.852 354.03 151.297C348.922 148.666 340.255 145.026 337.579 139.595C326.973 118.072 358.622 109.714 371.951 104.71C380.157 101.56 388.385 98.466 396.63 95.4279C400.367 94.0366 411.669 90.8441 412.637 87.2419L412.079 86.3899C410.287 85.5746 405.307 87.033 403.219 87.6045C397.345 89.2095 384.011 87.0343 382.834 79.7156C383.523 78.0382 394.516 72.1021 396.774 70.9124Z" fill="#0373BF"/>
<path d="M394.289 113.543C396.726 113.23 400.167 115.953 402.22 117.271C406.62 120.09 409.585 123.636 410.548 128.87C414.891 152.53 365.079 156.124 354.277 172.437C352.747 174.748 351.672 177.277 352.238 180.028C353.846 187.849 363.74 192.711 370.032 197.005C367.64 199.136 364.757 201.417 362.266 203.488L359.513 201.688L359.187 201.513C352.265 197.753 344.436 191.395 342.443 183.461C336.287 158.962 365.706 152.049 382.088 144.124C386.436 142.019 397.197 137.726 399.142 134.019C399.626 133.097 399.696 132.012 399.338 131.034C397.467 125.822 384.805 121.196 379.721 118.878C384.482 117.25 389.536 115.287 394.289 113.543Z" fill="#0373BF"/>
<path d="M343.546 70.3919C348.513 69.6254 351.856 72.7277 356.123 74.6481C357.335 75.1934 364.092 78.6765 363.121 80.4621C358.017 89.8499 345.938 88.1982 337.184 86.485C335.669 86.1893 334.637 86.1474 333.414 87.0635L333.59 88.0926C336.225 91.5399 359.523 98.3168 366.728 102.672L363.13 104.148C358.499 105.864 354.121 107.544 349.362 108.884C339.851 105.762 299.199 96.0975 316.477 78.1678C322.303 72.1217 332.954 72.6596 340.791 73.1076L343.546 70.3919Z" fill="#0373BF"/>
<path d="M390.844 156.655C392.083 156.603 392.732 157.289 393.696 158.02C399.643 162.663 403.637 168.518 404.597 176.099C406.376 188.947 394.677 196.273 385.324 202.448C374.986 209.273 353.257 218.262 371.428 231.947C370.015 233.471 369.383 234.671 367.588 234.958L366.006 233.757C362.481 230.716 359.105 228.068 357.674 223.487C352.543 207.07 386.235 194.782 392.789 182.437C393.918 180.31 394.228 177.498 393.351 175.247C390.84 168.806 384.369 165.398 378.67 162.553C382.743 160.622 386.802 158.656 390.844 156.655Z" fill="#0373BF"/>
<path d="M366.928 38.2786C370.023 38.789 375.387 38.539 378.618 38.3611C378.818 54.0279 378.4 80.7941 378.312 97.6253C378.077 97.9311 377.876 98.1924 377.711 98.4106C375.038 99.1422 370.63 100.648 368.262 98.8883C367.06 95.5731 366.845 44.6253 366.928 38.2786Z" fill="#D61B22"/>
<path d="M371.798 4.82508C379.764 4.11747 386.798 10.0056 387.5 17.9756C388.206 25.9456 382.315 32.9772 374.349 33.6791C366.389 34.3806 359.365 28.4933 358.661 20.5277C357.957 12.5621 363.839 5.53269 371.798 4.82508Z" fill="#D61B22"/>
<path d="M384.212 207.64C400.315 225.843 374.685 233.894 367.769 248.077C367.252 246.811 367.069 246.673 366.09 245.765C366.88 243.857 367.596 242.33 368.694 240.581C374.606 231.174 389.414 223.697 377.231 212.065C379.429 210.569 381.866 208.813 384.212 207.64Z" fill="#0373BF"/>
<path d="M376.625 120.192C377.419 120.818 376.782 138.979 376.769 141.512L369.02 144.654C368.606 142.877 368.441 126.403 368.332 123.174C371.14 121.893 373.699 121.121 376.625 120.192Z" fill="#D61B22"/>
<path d="M375.723 163.792L376.167 164.405C375.967 168.576 376.233 190.738 374.925 192.726C373.664 193.138 372.247 192.427 370.952 191.959C369.54 189.918 369.378 170.367 369.234 166.318C371.354 165.438 373.569 164.617 375.723 163.792Z" fill="#D61B22"/>
<path d="M403.267 249.647C403.72 248.657 406.188 242.257 406.415 241.998C407.889 241.519 408.185 241.636 409.711 241.968C410.771 243.831 410.261 253.913 408.626 255.476C407.636 253.946 407.728 251.56 407.632 249.701C407.523 248.981 407.418 248.891 407.034 248.257C404.409 250.804 405.661 253.28 403.55 254.997C400.651 254.64 401.518 248.737 398.95 248.578C397.459 250.755 400.093 253.535 396.944 255.127L396.234 254.786C395.222 253.323 396.081 244.025 396.242 241.766C401.435 241.578 401.514 245.294 403.267 249.647Z" fill="#0373BF"/>
<path d="M374.637 213.829C376.254 214.426 375.57 225.121 374.924 226.849C374.34 228.423 373.743 228.783 372.313 229.324C372.007 228.845 371.728 228.352 371.471 227.846C370.193 225.314 369.4 220.19 370.499 217.485C371.502 215.016 372.252 214.983 374.637 213.829Z" fill="#D61B22"/>
<path d="M383.706 241.538C386.418 241.561 392.375 240.818 393.604 243.121L393.168 244.29C392.196 244.796 391.603 244.84 390.548 245.017C389.933 246.713 390.256 251.252 390.312 253.288L390.229 254.211C389.288 254.869 388.969 254.807 387.866 254.803C385.468 253.143 387.892 249.249 387.016 245.498C385.9 244.336 386.318 244.669 384.404 244.495C383.506 243.329 383.798 243.311 383.706 241.538Z" fill="#0373BF"/>
<path d="M377.279 252.653C380.17 243.979 375.844 246.503 375.247 243.143C376.512 241.728 376.106 241.8 377.719 241.235C381.822 243.283 381.369 251.417 378.914 254.888C378.208 254.215 377.802 253.475 377.279 252.653Z" fill="#0373BF"/>
<path d="M366.089 245.765C367.069 246.673 367.251 246.811 367.769 248.077C367.373 254.106 370.455 253.734 370.66 256.673L370.01 257.234C365.839 256.296 365.666 249.134 366.089 245.765Z" fill="#0373BF"/>
<path d="M372.365 246.004L373.734 246.457C375.727 248.857 374.602 250.452 372.945 252.772C371.606 251.623 371.035 251.167 370.691 249.484C370.848 247.838 371.358 247.347 372.365 246.004Z" fill="#D61B22"/>
<path d="M378.914 254.888C377.763 255.872 376.324 257.078 374.763 256.717C374.92 255.123 376.097 254.275 377.279 252.653C377.802 253.475 378.208 254.215 378.914 254.888Z" fill="#0373BF"/>
</g>
<defs>
<clipPath id="clip0_2_479">
<rect width="734" height="266" fill="white"/>
</clipPath>
</defs>
</svg>
