<svg width="1033" height="219" viewBox="0 0 1033 219" fill="none" xmlns="http://www.w3.org/2000/svg">
<path d="M94.9973 0C97.4382 0.810005 117.252 12.5725 121.017 14.8109C142.556 27.6143 165.119 39.9554 186.256 53.3153C179.48 57.0041 172.475 61.4932 165.747 65.4451L124.862 89.4105C116.38 94.4167 103.825 102.304 95.0935 106.044C87.6127 101.935 79.8888 96.9382 72.4614 92.5626L30.1093 67.9527C22.0195 63.2539 11.9587 56.8745 3.72656 53.0628C33.4273 37.1419 65.227 16.9442 94.9973 0Z" fill="#1B365E"/>
<path d="M0 60.2108C9.7365 65.0624 23.0881 73.4528 32.749 79.1114L91.0337 113.058C91.2367 123.828 91.7017 216.851 90.526 218.826C80.4385 213.853 66.9573 205.375 57.1079 199.585C38.1381 188.405 19.1116 177.322 0.0288064 166.337C0.623 158.688 0.111171 142.822 0.118735 134.677L0 60.2108Z" fill="#1B365E"/>
<path d="M189.903 60.5934C191.231 61.8135 190.185 94.4362 190.147 98.7084L189.964 166.079C180.491 172.821 161.302 183.411 150.525 189.669C135.163 198.589 115.692 211.002 100.163 218.827C98.9971 217.344 99.7346 183.726 99.7502 178.904C99.6595 157.007 99.7179 135.108 99.9254 113.212C129.543 97.4649 160.228 76.7045 189.903 60.5934Z" fill="#1B365E"/>
<path d="M241.602 89.7877C253.077 68.1589 278.376 68.9725 298.744 75.1432C297.721 80.0143 296.642 85.5211 295.337 90.316C285.427 86.8552 273.506 83.772 263.187 88.315C260.902 89.3206 258.332 91.4281 257.548 93.9C256.993 95.6746 257.194 97.6001 258.104 99.2223C263.412 108.825 299.907 104.692 291.452 133.647C285.114 155.353 259.866 155.598 242.176 153.21C239.749 152.211 233.435 151.034 230.349 150.1C231.539 144.839 232.858 140.205 234.374 135.022L240.253 136.917C241.48 137.334 242.726 137.693 243.986 137.991C251.478 139.804 274.353 141.776 274.908 131.133C275.694 116.076 250.548 121.591 241.352 107.442C239.234 100.42 239.968 96.7327 241.602 89.7877Z" fill="#FEFEFE"/>
<path d="M506.669 71.78C511.468 71.7627 518.509 71.9262 523.086 71.3629C520.033 85.6766 517.391 100.307 514.438 114.713C511.685 128.264 510.239 136.277 499.097 145.711C498.862 145.856 498.625 145.998 498.387 146.139C486.484 153.166 472.376 154.744 459.232 151.477C439.185 145.983 440.375 129.924 444.227 113.441C447.417 99.7895 449.277 85.8834 452.87 72.3522C458.916 72.1314 463.574 72.0947 469.61 72.355C465.331 89.1251 461.69 108.891 458.747 126.017C456.083 141.515 480.113 140.512 488.666 134.606C496.4 129.265 497.651 114.89 499.511 105.995C501.586 95.4528 503.899 81.9243 506.669 71.78Z" fill="#FEFEFE"/>
<path d="M342.982 71.4031C388.499 66.8968 386.223 107.83 369.503 136.29C362.997 147.365 351.511 151.175 339.735 153.488C322.928 154.228 303.347 152.47 300.931 131.263C299.27 116.677 304.283 97.9549 313.122 86.1678C320.235 76.6796 331.603 72.7851 342.982 71.4031ZM362.712 95.4363C359.653 85.4189 348.079 85.7986 339.886 86.3631C332.912 88.3162 327.099 91.7544 323.738 98.533C314.793 116.572 311.543 144.908 341.799 138.555C349.369 136.007 354.368 132.07 357.834 124.712C361.481 116.968 365.253 103.755 362.712 95.4363Z" fill="#FEFEFE"/>
<path d="M396.098 72.3706L412.479 72.1164C407.755 93.9329 403.233 117.026 398.81 138.987L437.758 138.617C436.668 142.519 435.668 148.229 434.833 152.316C416.54 151.907 398.24 151.922 379.947 152.362C382.435 136.672 386.414 119.706 389.458 104.012C390.989 96.1196 393.72 79.2944 396.098 72.3706Z" fill="#FEFEFE"/>
<path d="M663.838 69.7486C695.666 70.1936 700.749 90.438 692.969 117.074C686.012 140.898 674.778 150.193 650.057 152.373C633.556 151.948 617.927 147.625 616.581 128.027C615.547 112.96 620.269 95.0386 630.163 83.3687C639.14 72.7876 650.824 70.6139 663.838 69.7486ZM678.721 94.6812C677.464 85.1124 665.284 84.1048 657.303 84.6754C638.355 88.1145 632.204 108.846 633.583 126.17C634.467 137.199 647.465 138.603 656.58 137.241C673.682 132.806 680.879 111.059 678.721 94.6812Z" fill="#FEFEFE"/>
<path d="M777.098 70.8985L778.755 70.8329L779.339 71.4174L763.217 150.147C758.473 150.349 753.545 150.306 748.779 150.324C747.945 148.5 747.027 146.72 746.081 144.951C737.845 129.548 730.704 113.578 722.556 98.1356C721.349 106.564 719.236 115.223 717.517 123.604C715.721 132.344 714.314 141.627 712 150.174C707.557 150.558 702.702 150.57 698.208 150.66L696.478 150.481C695.633 148.39 709.603 78.9824 711.322 71.7055C715.793 71.1404 721.21 71.2589 725.804 71.245C732.061 83.9098 739.024 96.3026 745.058 109.105C747.288 113.837 749.785 118.78 752.505 123.226C753.873 113.166 760.297 81.2259 763.272 71.1727L777.098 70.8985Z" fill="#FEFEFE"/>
<path d="M567.262 71.4802C576.26 71.2789 585.259 71.3573 594.246 71.7166C593.123 76.4192 592.133 80.4506 590.681 85.0548L567.245 85.0086C563.791 98.4342 561.906 112.987 558.575 126.539C556.567 134.705 555.766 143.08 553.274 151.273L539.148 151.343C538.336 151.399 538.158 151.237 537.396 150.872C537.407 148.508 540.044 136.66 540.583 133.692C543.492 117.659 547.774 101.146 550.16 85.0726L526.735 85.314C527.602 80.2165 528.075 76.68 529.816 71.8267C541.812 71.3028 555.154 71.508 567.262 71.4802Z" fill="#FEFEFE"/>
<path d="M600.108 71.8378C606.237 71.4574 611.287 71.5419 617.393 71.6654C615.091 80.2576 613.545 89.178 611.715 97.8881L600.642 151.045C595.625 151.313 589.319 151.105 584.208 151.07C589.085 124.601 595.036 98.3908 600.108 71.8378Z" fill="#FEFEFE"/>
<path d="M793.521 76.6034C805.924 68.3484 819.71 67.6765 834.025 70.5399C836.984 71.1416 839.921 71.8494 842.829 72.6591C841.767 76.9774 840.31 83.6875 838.831 87.6776C829.215 83.9638 816.896 81.1622 807.047 85.5556C804.383 86.7457 802.046 89.0441 801.018 91.8075C800.506 93.1837 800.451 94.5118 801.112 95.8485C806.902 107.533 844.821 99.976 834.871 132.401C832.958 138.635 828.281 143.871 822.547 146.883C816.863 149.872 810.756 150.935 804.438 151.484C803.048 151.235 788.949 150.967 785.796 150.697C782.181 149.994 777.754 148.415 774.184 147.257C775.557 141.887 776.353 137.476 777.176 132.01L782.993 133.865C786.041 134.825 788.571 135.665 791.747 136.237C800.896 138.121 821.578 138.583 818.804 124.176C817.904 119.525 798.33 114.209 792.364 111.6L791.83 111.357L791.161 110.889C787.91 108.559 786.03 106.416 783.788 102.94C783.404 99.9651 783.472 97.5567 783.505 94.5888C785.101 86.0663 786.953 82.8704 793.521 76.6034Z" fill="#FEFEFE"/>
<path d="M921.888 70.3599C933.144 69.8939 951.698 69.4046 962.426 71.1558C987.246 75.2069 978.821 114.081 970.896 129.447C967.358 136.301 964.116 140.698 957.053 145.064C945.557 151.285 919.101 149.633 905.063 149.667C911.126 124.537 915.086 94.585 921.888 70.3599ZM965.768 115.203C974.599 79.2989 966.074 76.5747 932.827 78.1519C931.893 78.2793 930.202 78.3068 930.068 78.982C926.854 95.321 919.663 126.381 917.305 141.859C927.271 141.687 941.391 142.41 950.179 138.764C958.988 133.787 963.409 124.784 965.768 115.203Z" fill="#FEFEFE"/>
<path d="M875.593 69.7089C893.084 67.555 910.97 72.6281 904.957 94.4451C902.889 101.967 896.827 106.481 890.214 109.93C907.599 118.967 900.786 138.321 886.471 146.275C874.113 153.14 857.985 151.631 844.737 147.719C845.727 144.619 846.45 141.972 847.246 138.838C851.189 140.39 855.276 141.531 859.448 142.243C867.673 143.08 878.19 142.707 884.519 136.783C889.385 132.269 892.55 122.969 887.183 117.639C881.683 112.173 870.86 113.217 863.552 113.086L865.493 106.202C871.955 106.055 876.722 106.332 883.49 104.287C894.324 101.336 901.904 84.9547 889.179 79.231C880.581 75.3659 868.468 78.7071 860.276 81.9216L861.7 72.7254C866.221 71.2767 870.876 70.2667 875.593 69.7089Z" fill="#FEFEFE"/>
<path d="M995.382 70.0676L1005.45 69.9142C1005.02 71.6571 1004.62 73.4934 1004.32 75.2641C1000.55 97.1646 994.164 119.389 991.094 141.383C1004.83 141.041 1019.3 141.654 1032.93 140.863C1032.23 143.835 1031.67 146.188 1030.71 149.116L978.736 149.353C984.893 123.251 989.153 96.2392 995.382 70.0676Z" fill="#FEFEFE"/>
</svg>
