<svg width="676" height="163" viewBox="0 0 676 163" fill="none" xmlns="http://www.w3.org/2000/svg">
<g clip-path="url(#clip0_2_21)">
<path d="M308.964 34.6844C337.524 45.7298 366.192 56.4937 394.966 66.9744L557.366 127.679L602.046 144.466C606.019 145.922 629.813 154.101 631.5 155.776L631.378 156.182C627.907 157.015 587.124 156.684 583.547 155.87C575.495 154.035 564.765 149.351 556.785 146.448L504.162 127.396L317.865 60.0247C312.834 58.4361 300.959 52.9446 296.621 53.083C294.678 53.1451 282.164 58.5821 279.481 59.6568L250.512 71.0652L99.4533 130.49C82.732 137.273 65.9421 143.886 49.0867 150.328C46.6619 151.24 34.2088 156.304 32.7527 156.474C26.1331 157.249 8.09425 157.153 1.49023 156.016C2.8209 155.198 13.989 151.165 16.1101 150.339L48.1448 137.516L189.226 81.7572L271.786 48.8951L294.726 39.7455C298.368 38.3062 305.439 35.3522 308.964 34.6844Z" fill="#CB0D40"/>
<path d="M315.294 33.4422C317.335 33.1638 323.786 33.282 326.07 33.2807L347.558 33.2744L372.127 33.2625C374.928 33.2549 384.14 33.0062 386.2 33.5799C391.756 35.1243 398.635 38.36 404.25 40.4345L462.032 62.2148L644.206 131.311C643.384 134.612 639.79 142.958 638.357 146.921L635.985 152.988C633.221 151.747 628.643 150.168 625.71 149.062L605.692 141.546L546.725 119.632L382.501 58.518L336.95 41.6258C331.896 39.76 319.554 35.5804 315.294 33.4422Z" fill="#CB0D40"/>
<path d="M393.906 33.1093L435.527 33.2919C440.26 33.2866 451.011 32.9607 455.199 33.5277C458.036 33.9119 468.912 38.6665 472.608 40.0692L513.268 55.3279L653.47 108.67L647.35 124.038L645.24 129.221C638.681 126.141 628.472 122.691 621.546 120.09L578.729 103.948L444.425 52.872C431.204 47.8049 417.858 42.9921 404.666 37.8613C403.068 37.2397 394.722 34.1222 393.781 33.5119L393.906 33.1093Z" fill="#CB0D40"/>
<path d="M277.151 71.4034C278.65 71.1798 282.948 71.0966 283.191 73.3114C283.523 76.336 283.392 79.6018 283.383 82.6612L283.373 99.3001L283.446 130.141C283.474 135.792 284.194 149.326 282.461 154.515C280.948 159.043 268.978 159.78 265.891 156.176C264.175 154.172 263.348 151.214 263.3 148.383C262.85 138.731 263.414 129.071 263.424 119.421C260.424 121.684 258.988 122.861 255.472 124.17C253.126 122.988 251.825 121.893 249.892 120.206C249.606 127.262 249.708 134.216 249.761 141.273C249.988 151.056 250.276 161.321 234.968 157.708C230.411 156.632 229.251 150.947 229.191 146.683C228.956 129.816 228.919 112.718 229 95.8312C229.011 85.344 236.093 80.0649 246.62 83.1149C250.901 84.3555 253.087 90.3473 254.724 94.303C258.033 87.4174 257.488 78.862 265.005 74.5843C268.994 72.314 272.705 71.881 277.151 71.4034Z" fill="#253973"/>
<path d="M462.068 33.4277C467.098 32.8708 483.163 33.2186 488.751 33.2272L504.281 33.2612C506.355 33.2635 513.991 33.0981 515.573 33.7068C524.986 37.3282 534.67 40.8566 544.155 44.2663L626.16 74.4241L649.589 83.1866C653.206 84.5186 657.988 86.4177 661.595 87.3996C659.831 92.3141 658.203 96.7289 656.178 101.535L654.187 106.289C648.962 105.08 635.368 99.5841 629.459 97.333L579.924 78.2731L505.5 49.9708C491.07 44.5404 476.31 39.3158 462.068 33.4277Z" fill="#CB0D40"/>
<path d="M297.062 63.7757C299.411 63.6019 302.084 64.4048 304.319 65.1146C310.158 67.0897 315.593 69.0977 321.376 71.3446C330.43 74.8627 340.13 77.7374 348.892 81.9246C349.688 82.3044 350.402 84.1081 350.517 84.9552C351.251 90.3856 346.488 95.6466 341.24 96.4174C337.062 97.0661 333.247 93.7534 330.15 91.497C329.909 96.6007 330.131 103.489 330.157 108.717C330.238 119.635 330.255 130.553 330.205 141.472C330.137 145.415 330.02 148.277 328.13 151.929C323.444 160.986 305.893 160.107 304.235 149.187C303.171 142.184 303.61 134.55 303.629 127.373L303.63 95.136C303.644 92.2645 303.809 86.1634 303.38 83.5793C302.681 79.3769 289.455 86.7219 289.277 79.9512C289.077 72.375 287.856 65.5572 297.062 63.7757Z" fill="#253973"/>
<path d="M209.539 95.1738C214.886 95.5574 218.293 99.1897 218.514 104.405C219.065 117.395 218.797 131.178 218.499 144.149C218.159 158.964 208.886 158.491 197.308 158.303C191.485 158.208 185.714 158.438 179.699 158.02C172.718 156.651 170.306 152.541 169.842 145.649C169.308 136.226 168.933 125.99 169.514 116.619C169.788 112.195 173.486 107.269 177.505 106.033C185.958 103.434 201.187 96.0084 209.539 95.1738ZM200.004 117.149C199.969 115.281 193.731 115.904 192.471 115.971C183.958 116.902 185.435 124.585 185.491 131.116C185.511 135.787 185.503 140.458 185.466 145.128C187.868 149.352 188.979 148.65 193.529 148.56C195.788 148.601 197.887 148.992 199.532 147.487C201.279 144.216 200.096 122.022 200.004 117.149Z" fill="#253973"/>
<path d="M360.284 86.5168C367.798 85.9801 388.377 95.5554 396.538 97.7421C403.408 99.5834 397.48 107.221 392.803 109.331C385.672 112.547 381.346 105.034 377.244 105.516C376.273 107.589 376.936 117.009 376.926 119.697C377.316 125.211 388.245 119.418 391.151 123.143C398.005 131.931 382.782 130.97 378.76 131.187C378.677 136.627 378.624 142.114 380.652 147.163C386.822 148.382 398.54 145.894 403.543 148.32C404.769 148.913 405.77 149.916 406.206 151.221C406.698 152.686 406.632 154.684 405.925 156.072C405.38 157.148 404.445 157.763 403.326 158.109C401.559 158.655 371.5 159.125 368.095 158.836C366.037 158.662 363.92 158.255 362.084 157.271C359.973 156.141 358.543 154.02 357.866 151.762C356.228 146.315 354.233 92.6936 356.129 89.1933C356.988 87.6113 358.656 87.0036 360.284 86.5168Z" fill="#253973"/>
<path d="M420.599 107.327C428.905 106.544 474.074 123.922 445.402 130.564C443.801 130.934 442.288 131.408 440.666 131.744C436.366 132.633 438.123 128.466 435.009 127.292C429.543 126.996 430.233 136.419 432.039 139.45C437.78 149.087 447.652 141.907 457.55 144.926C458.96 145.665 460.063 146.762 460.39 148.342C461.444 153.456 453.91 155.602 450.277 156.523C444.818 157.975 439.256 157.915 433.691 158.342C421.167 159.304 410.05 152.62 407.051 140.001C404.527 129.384 408.18 110.302 420.599 107.327Z" fill="#253973"/>
<path d="M519.675 33.4402C523.758 33.0009 532.378 33.3533 536.807 33.2599C542.448 33.1406 550.299 33.0597 555.893 33.5829C557.812 33.7622 564.352 36.4791 566.456 37.2935C571.664 39.3102 576.886 41.2833 582.127 43.2127L639.734 64.2252C649.104 67.6339 657.774 71.1415 667.302 74.1939C666.335 76.2257 664.98 80.0992 664.125 82.3081L662.464 85.8123C651.264 82.6694 634.238 75.7359 622.807 71.4701L557.063 47.0991C548.324 43.8376 539.366 40.9084 530.631 37.6453C528.243 36.7539 521.617 34.5764 519.675 33.4402Z" fill="#CB0D40"/>
<path d="M151.26 116.266C161.432 115.424 161.558 123.272 161.649 130.939C161.689 134.355 161.651 138.624 161.751 141.965C162.258 159.012 159.106 158.473 144.431 158.379L126.947 158.353C123.531 158.356 119.944 158.49 116.515 158.565C116.163 149.456 116.343 139.191 116.372 130.04C122.965 127.011 144.901 117.231 151.26 116.266ZM142.226 133.09C139.314 131.185 136.005 131.329 132.701 131.489C132.661 136.088 132.342 146.448 132.835 150.576C137.647 150.7 139.625 151.139 143.624 148.394C145.556 145.501 146.625 141.982 145.91 138.507C145.472 136.275 144.142 134.318 142.226 133.09Z" fill="#253973"/>
<path d="M560.59 33.4538C563.618 33.0406 583.346 32.9636 585.499 33.6628C614.471 43.072 643.423 54.7628 672.26 64.4283C671.507 66.3178 670.734 68.2 669.944 70.075C669.538 71.0074 669.238 71.9156 668.481 72.5887C667.609 72.8295 666.691 72.5111 665.865 72.2059C652.489 67.2687 639.113 62.0609 625.707 57.229L576.347 39.189C571.453 37.3593 565.207 35.3165 560.59 33.4538Z" fill="#CB0D40"/>
<path d="M182.963 39.2815C186.657 38.9387 188.154 39.1459 191.38 40.7776C194.459 45.1676 193.681 49.9403 191.078 54.4426C185.127 64.7303 174.904 71.5235 163.61 74.7747C161.288 74.9857 159.738 74.9455 157.412 74.8801C157.304 74.8171 157.197 74.7525 157.09 74.6868C150.25 70.4504 152.358 63.2165 155.985 57.5989C162.144 48.0597 172.081 41.8297 182.963 39.2815ZM175.431 45.5061C164.201 49.7782 161.978 68.2902 170.793 68.9534C181.923 64.6259 183.695 44.7322 175.431 45.5061Z" fill="#253973"/>
<path d="M236.398 18.6885C238.469 17.2187 243.187 14.3392 245.499 13.5618C249.426 12.2413 267.695 2.77604 269.79 4.05163C269.791 4.08189 269.799 4.35304 269.783 4.3968C266.89 12.3697 256.212 11.296 250.48 16.0579C249.764 16.653 249.714 19.0339 249.645 19.813L249.901 22.0917C251.948 23.1935 260.342 16.8026 263.717 16.9229L264.255 17.3367C264.421 22.4634 253.048 25.792 249.14 27.6809C249.029 30.0291 249.218 32.3817 249.703 34.6821C253.524 33.5132 267.596 26.5239 269.266 26.4334L269.708 26.9077C270.103 32.8104 242.134 42.9194 236.947 44.1547C236.875 40.7343 237.871 35.3228 238.157 31.7175C238.456 27.9603 238.417 25.0751 238.345 21.3241L236.398 18.6885Z" fill="#253973"/>
<path d="M152.621 51.0634C153.408 51.1988 153.156 51.0432 153.668 51.6337C153.248 58.1666 145.007 58.2799 140.887 60.9396L140.793 61.001C139.518 65.7596 138.976 79.0122 140.044 83.8468C136.053 85.9635 131.755 87.573 127.546 89.2029C127.646 84.4628 127.814 79.7243 128.049 74.9888C128.364 72.2915 128.446 68.7304 128.585 65.9604C125.578 67.3146 120.231 71.4479 117.184 70.1077C116.633 68.3671 117.58 66.4287 119.199 65.6146C129.95 60.2103 141.487 55.7361 152.621 51.0634Z" fill="#253973"/>
<path d="M210.027 27.6465C210.736 27.5455 210.828 27.5686 211.512 27.7872C212.586 29.787 211.014 46.2707 211.081 50.2099C216.435 48.7815 230.001 41.2955 231.969 41.3747L232.329 41.9702C232.157 46.6724 224.841 49.4206 221.039 51.0756C215.429 53.7739 208.656 55.7949 202.959 58.6283C201.783 59.2129 200.527 59.243 199.35 58.664C199.013 58.1081 198.808 57.48 198.891 56.8287C199.808 49.7053 201.571 43.1708 200.081 35.9847C199.639 35.4965 198.171 34.0608 198.177 33.5842C200.681 31.8744 207.17 28.9204 210.027 27.6465Z" fill="#253973"/>
<path d="M491.737 141.57C493.246 141.569 494.868 141.637 496.387 141.672C496.602 144.244 496.903 156.846 496.262 158.811C495.489 159.41 493.963 159.43 492.919 159.532C492.728 159.47 492.246 159.204 492.041 159.098C491.489 157.905 491.545 154.708 491.473 153.149C490.376 152.11 487.794 150.114 486.231 150.102C483.962 151.733 486.42 155.672 484.309 158.596C483.057 159.592 480.755 159.827 479.665 158.58C479.22 156.316 479.418 143.972 479.791 141.656L484.322 141.622C486.337 144.027 488.622 146.188 491.139 148.061C491.552 145.823 491.618 143.833 491.737 141.57Z" fill="#253973"/>
<path d="M505.635 141.382C507.62 141.265 514.949 140.61 515.629 143.038C517.026 148.019 510.599 144.512 507.974 145.978C505.82 147.178 505.903 147.731 504.925 149.869C505.975 151.752 506.976 152.973 508.611 154.353C510.863 154.828 513.456 154.843 515.775 154.936C515.95 155.972 515.986 157.286 515.603 158.273C513.595 160.977 506.391 159.285 503.918 157.583C497.748 153.343 497.041 142.985 505.635 141.382Z" fill="#253973"/>
<path d="M471.125 141.599C473.106 141.534 474.398 141.639 476.35 141.809C476.502 145.039 476.759 156.222 476.165 159.097C474.414 159.66 472.977 159.485 471.168 159.426C471.029 153.485 471.016 147.541 471.125 141.599Z" fill="#253973"/>
<path d="M180.785 32.055C182.724 31.952 187.672 32.1571 188.488 34.2887C186.265 36.992 179.474 36.3539 177.083 37.4762C174.628 38.6288 171.07 41.1151 168.556 42.6245C166.362 43.8951 165.076 44.3436 162.688 45.1699C166.456 39.8779 174.258 33.5568 180.785 32.055Z" fill="#253973"/>
<path d="M518.73 154.411C520.075 154.342 522.271 154.519 523.678 154.59C523.77 155.962 523.691 157.794 523.671 159.204C521.7 159.414 520.894 159.733 519.358 158.668C518.684 157.587 518.773 155.738 518.73 154.411Z" fill="#253973"/>
</g>
<defs>
<clipPath id="clip0_2_21">
<rect width="676" height="163" fill="white"/>
</clipPath>
</defs>
</svg>
