<svg width="4091" height="1762" viewBox="0 0 4091 1762" fill="none" xmlns="http://www.w3.org/2000/svg">
<g clip-path="url(#clip0_12_173)">
<!-- Changed black fill to white for M letter -->
<path d="M1511 1760.5V824.5L1987 1690.5L2459 824.5V1760.5H1511Z" fill="white"/>
<path d="M1987 909.5L1502 1.5H2468L1987 909.5Z" fill="#CE2130"/>
<!-- Changed black fill to white for E letter -->
<path d="M0 206.5L204 0.5H1136V331.5H375V706.5H1136V1039.5H375V1428.5H1136V1760.5H0V206.5Z" fill="white"/>
<!-- Changed black fill to white for B letter -->
<path d="M3817.29 841.212C3983.02 871.345 4091 1016.99 4091 1222.9V1288.18C4091 1569.43 3905.18 1757.76 3626.45 1757.76H2832.5V0H3566.18C3844.91 0 4030.73 180.798 4030.73 451.995V512.261C4030.73 670.459 3950.38 796.013 3817.29 841.212ZM3458.21 301.33H3214.18V723.191H3458.21C3578.74 723.191 3646.54 645.348 3646.54 534.86V489.661C3646.54 369.129 3571.21 301.33 3458.21 301.33ZM3709.32 1250.52V1202.81C3709.32 1069.72 3631.47 996.899 3513.45 996.899H3214.18V1458.94H3513.45C3639.01 1458.94 3709.32 1373.56 3709.32 1250.52Z" fill="white"/>
</g>
<defs>
<clipPath id="clip0_12_173">
<rect width="4091" height="1762" fill="white"/>
</clipPath>
</defs>
</svg>
